<svg width="547" height="540" viewBox="0 0 547 540" fill="none" xmlns="http://www.w3.org/2000/svg">
<path d="M273.5 62.5809L68.375 200.053V514.687H478.625V200.053L273.5 62.5809Z" fill="#EAE8E5"/>
<path d="M145.297 345.938H239.312V514.688H145.297V345.938Z" fill="#E89D43"/>
<path d="M333.328 421.875H452.984V455.625H333.328V421.875Z" fill="#33385C"/>
<path d="M307.688 514.688V396.562L324.781 371.25L341.875 396.562V514.688H307.688Z" fill="#454A6D"/>
<path d="M376.062 514.688V396.562L393.156 371.25L410.25 396.562V514.688H376.062Z" fill="#454A6D"/>
<path d="M444.438 514.688V396.562L461.531 371.25L478.625 396.562V514.688H444.438Z" fill="#454A6D"/>
<path d="M299.141 270H247.859C233.697 270 222.219 258.668 222.219 244.688V194.062C222.219 180.082 233.697 168.75 247.859 168.75H299.141C313.303 168.75 324.781 180.082 324.781 194.062V244.688C324.781 258.668 313.303 270 299.141 270Z" fill="#4AC3ED"/>
<path d="M324.781 210.938H282.047V168.75H264.953V210.938H222.219V227.812H264.953V270H282.047V227.812H324.781V210.938Z" fill="#454A6D"/>
<path d="M196.578 421.875H213.672V438.75H196.578V421.875Z" fill="#454A6D"/>
<path d="M59.8281 447.188H76.9219V514.688H59.8281V447.188Z" fill="#454A6D"/>
<path d="M111.109 413.437C111.109 443.728 91.9729 464.062 68.375 464.062C44.7771 464.062 25.6406 443.728 25.6406 413.437C25.6406 393.66 43.854 345.769 56.5034 314.896C60.8281 304.341 75.9304 304.341 80.2552 314.896C92.896 345.769 111.109 393.66 111.109 413.437Z" fill="#76CC7A"/>
<path d="M17.0938 506.25H529.906V523.125H17.0938V506.25Z" fill="#454A6D"/>
<path d="M503.214 216.464L273.5 62.5809L43.7856 216.464L24.5894 188.536L273.5 21.7941L522.411 188.536L503.214 216.464Z" fill="#E89D43"/>
<path d="M239.938 354.719V325.102C239.938 319.095 241.778 313.334 245.054 309.087C248.33 304.839 252.773 302.453 257.406 302.453H257.406C262.039 302.453 266.483 304.839 269.759 309.087C273.035 313.334 274.875 319.095 274.875 325.102V354.719H239.938Z" fill="#B36F42"/>
<path d="M274.875 403.5C273.139 394.497 273.904 384.989 277.035 376.644L277.879 374.395L279.15 372.953C280.339 371.604 281.293 369.94 281.946 368.073C282.6 366.207 282.938 364.18 282.938 362.131V362.131C282.938 358.317 281.769 354.659 279.689 351.962C277.609 349.265 274.787 347.75 271.846 347.75H242.816C239.252 347.75 235.834 349.586 233.314 352.853L226.5 361.688V379.109H242.625V403.5H274.875Z" fill="#F5A431"/>
<path d="M264.125 330.328V346.008C264.125 348.318 263.417 350.534 262.157 352.167C260.897 353.801 259.188 354.719 257.406 354.719C255.624 354.719 253.915 353.801 252.655 352.167C251.395 350.534 250.688 348.318 250.688 346.008V330.328H264.125Z" fill="#FFCEB6"/>
<path d="M183.5 326.844H226.5V386.078H183.5V326.844Z" fill="#F7C04A"/>
<path d="M127.062 406.984V354.009C127.062 348.652 128.704 343.515 131.625 339.728C134.546 335.94 138.509 333.812 142.64 333.812H169.872C173.435 333.813 176.853 335.648 179.373 338.915L183.5 344.266V372.141L172.75 358.203V406.984H127.062Z" fill="#ED6445"/>
<path d="M261.438 330.328V333.812C261.438 335.185 261.229 336.545 260.824 337.813C260.419 339.081 259.825 340.233 259.076 341.204C258.327 342.175 257.439 342.945 256.46 343.47C255.482 343.995 254.434 344.266 253.375 344.266H250.688V330.328H261.438Z" fill="#FFBFA1"/>
<path d="M136.202 369.793C135.216 368.356 133.518 368.226 132.41 369.504C131.301 370.782 131.201 372.983 132.187 374.421L135.78 379.662C136.766 381.1 138.464 381.229 139.572 379.952C140.681 378.674 140.781 376.473 139.795 375.035L136.202 369.793Z" fill="#DE402F"/>
<path d="M149.673 358.743C148.745 357.24 147.053 356.997 145.894 358.2C144.735 359.403 144.547 361.596 145.475 363.099L148.165 367.458C149.093 368.961 150.785 369.204 151.944 368.001C153.103 366.798 153.291 364.605 152.363 363.102L149.673 358.743Z" fill="#DE402F"/>
<path d="M167.375 333.812V347.75L156.625 340.781L145.875 347.75V333.812H167.375Z" fill="#F79A7E"/>
<path d="M159.312 342.523V354.719C159.312 355.643 159.029 356.529 158.525 357.183C158.021 357.836 157.338 358.203 156.625 358.203C155.912 358.203 155.229 357.836 154.725 357.183C154.221 356.529 153.938 355.643 153.938 354.719V342.523L156.625 340.781L159.312 342.523Z" fill="#DE402F"/>
<path d="M159.312 333.812V342.523L156.625 340.781L153.938 342.523V333.812H159.312Z" fill="#F28868"/>
<path d="M151.922 368.003L156.625 375.625H183.5L188.318 369.378C188.495 369.149 188.704 368.968 188.935 368.844C189.165 368.72 189.413 368.656 189.662 368.656C190.166 368.656 190.649 368.916 191.006 369.378C191.362 369.84 191.562 370.467 191.562 371.12V379.109L198.066 384.731C198.545 385.145 198.939 385.707 199.211 386.366C199.483 387.024 199.625 387.76 199.625 388.508C199.625 389.104 199.534 389.694 199.358 390.245C199.182 390.795 198.925 391.296 198.599 391.717C198.274 392.139 197.888 392.473 197.464 392.701C197.039 392.929 196.584 393.047 196.124 393.047H154.597C152.699 393.047 150.823 392.526 149.092 391.518C147.361 390.51 145.814 389.038 144.553 387.199L139.604 379.98L151.922 368.003Z" fill="#FFCEB6"/>
<path d="M164.688 508.031L151.25 431.375L143.188 508.031H127.062V406.984H172.75L186.188 508.031H164.688Z" fill="#445496"/>
<path d="M263.068 361.084L259.799 364.475C258.64 365.678 258.452 367.871 259.38 369.374C260.308 370.877 261.999 371.12 263.159 369.918L266.427 366.526C267.587 365.323 267.774 363.13 266.847 361.627C265.919 360.124 264.227 359.881 263.068 361.084Z" fill="#EB8117"/>
<path d="M274.119 374.199L270.321 378.502C269.203 379.768 269.089 381.969 270.066 383.418C271.042 384.867 272.74 385.016 273.857 383.749L277.656 379.446C278.774 378.18 278.888 375.979 277.911 374.53C276.935 373.081 275.237 372.932 274.119 374.199Z" fill="#EB8117"/>
<path d="M246.658 380.853C246.408 381.176 246.112 381.433 245.786 381.608C245.46 381.783 245.11 381.874 244.757 381.874C244.404 381.874 244.055 381.784 243.729 381.608C243.403 381.433 243.107 381.177 242.857 380.853L240.725 378.089C238.775 375.55 237.562 372.216 237.289 368.651C237.017 365.086 237.703 361.509 239.23 358.524L239.794 357.427C239.99 357.046 240.242 356.719 240.535 356.465C240.828 356.21 241.157 356.033 241.503 355.943C241.849 355.854 242.206 355.853 242.552 355.942C242.898 356.031 243.227 356.207 243.521 356.461L243.521 356.461C243.815 356.715 244.067 357.041 244.263 357.421C244.46 357.802 244.596 358.228 244.666 358.677C244.735 359.126 244.735 359.588 244.667 360.036C244.598 360.485 244.462 360.912 244.266 361.293L243.702 362.389C242.858 364.031 242.479 366.002 242.628 367.966C242.778 369.929 243.449 371.765 244.525 373.161L246.658 375.925C247.162 376.579 247.445 377.465 247.445 378.389C247.445 379.313 247.162 380.199 246.658 380.853V380.853Z" fill="#EB8117"/>
<path d="M280.25 436.149C280.25 439.929 280.022 443.704 279.568 447.438L279.403 448.797L272.188 508.031H242.625V403.5H274.875L277.384 413.265C279.281 420.644 280.249 428.371 280.25 436.149V436.149Z" fill="#FFCEB6"/>
<path d="M280.25 436.149C280.25 439.929 280.022 443.704 279.568 447.438L279.403 448.797H242.625V403.5H274.875L277.384 413.265C279.281 420.644 280.249 428.371 280.25 436.149V436.149Z" fill="#E8671C"/>
<path d="M253.375 448.797H258.75V508.031H253.375V448.797Z" fill="#FFBFA1"/>
<path d="M258.75 448.797H253.375V427.891C253.375 426.967 253.658 426.08 254.162 425.427C254.666 424.773 255.35 424.406 256.062 424.406C256.775 424.406 257.459 424.773 257.963 425.427C258.467 426.08 258.75 426.967 258.75 427.891V448.797Z" fill="#D64E13"/>
<path d="M199.625 326.844V351.234L205 347.75L210.375 351.234V326.844H199.625Z" fill="#F7DFA1"/>
<path d="M148.562 316.391L148.561 326.844C148.561 329.616 149.411 332.275 150.923 334.235C152.435 336.196 154.485 337.297 156.624 337.297H156.624C158.762 337.297 160.813 336.196 162.325 334.235C163.837 332.275 164.686 329.616 164.686 326.844V316.391H148.562Z" fill="#FFCEB6"/>
<path d="M156.625 302.453C158.763 302.453 160.814 303.554 162.326 305.515C163.838 307.475 164.688 310.134 164.688 312.906V316.391H148.562V312.906C148.562 310.134 149.412 307.475 150.924 305.515C152.436 303.554 154.487 302.453 156.625 302.453V302.453Z" fill="#EB8117"/>
<path d="M159.313 316.391L151.25 326.844H148.562L148.563 316.391H159.313Z" fill="#B36F42"/>
<path d="M148.562 312.906H172.75V319.875H148.562V312.906Z" fill="#F5A431"/>
<path d="M264.126 323.358L264.127 330.328C264.127 331.701 263.919 333.06 263.513 334.329C263.108 335.597 262.514 336.749 261.765 337.72C261.017 338.691 260.128 339.461 259.149 339.986C258.171 340.511 257.123 340.781 256.064 340.781C255.005 340.781 253.956 340.511 252.978 339.985C252 339.46 251.111 338.69 250.362 337.719C249.613 336.748 249.019 335.596 248.614 334.327C248.209 333.059 248 331.7 248 330.327V323.358L253.375 316.389C254.088 319.162 255.621 321.453 257.637 322.76C259.653 324.067 261.987 324.282 264.125 323.358L264.126 323.358Z" fill="#FFCEB6"/>
<path d="M270.038 383.291L265.237 388.736C262.788 391.515 259.643 393.047 256.389 393.047H213.876C212.948 393.047 212.057 392.569 211.4 391.717C210.744 390.866 210.375 389.711 210.375 388.508C210.375 387.76 210.517 387.024 210.789 386.366C211.061 385.707 211.454 385.145 211.934 384.731L218.438 379.109V371.12C218.438 370.467 218.638 369.84 218.994 369.378C219.35 368.916 219.834 368.656 220.338 368.656C220.587 368.656 220.835 368.72 221.065 368.844C221.296 368.968 221.505 369.149 221.682 369.378L226.5 375.625H253.375L259.347 369.431L270.038 383.291Z" fill="#FFCEB6"/>
</svg>
