<svg id="flat" height="512" viewBox="0 0 512 512" width="512" xmlns="http://www.w3.org/2000/svg"><path d="m360 144v-68a52 52 0 0 1 52-52h.0001a52 52 0 0 1 52 52v68z" fill="#b36f42"/><path d="m464 256a90.67782 90.67782 0 0 1 6.42974-61.66107l2.51145-5.16243 3.78346-3.31053a33.01762 33.01762 0 0 0 11.27535-24.84831v-.00005a33.01761 33.01761 0 0 0 -33.01761-33.01761h-86.41385a40 40 0 0 0 -28.28427 11.71573l-20.28427 20.28427v40h48v56z" fill="#f5a431"/><path d="m432 88v36a20 20 0 0 1 -40 0v-36z" fill="#ffceb6"/><path d="m192 80h128v136h-128z" fill="#f7c04a"/><path d="m24 264v-121.62993a46.37007 46.37007 0 0 1 46.37007-46.37007h81.06139a40 40 0 0 1 28.28427 11.71573l12.28427 12.28427v64l-32-32v112z" fill="#ed6445"/><path d="m424 88v8a23.99978 23.99978 0 0 1 -24 24h-8v-32z" fill="#ffbfa1"/><rect fill="#de402f" height="32.111" rx="8" transform="matrix(.747 -.664 .664 .747 -113.43 81.652)" width="16" x="42.666" y="173.945"/><rect fill="#de402f" height="28.814" rx="8" transform="matrix(.781 -.625 .625 .781 -82.479 91.371)" width="16" x="81" y="148.843"/><path d="m144 96v32l-32-16-32 16v-32z" fill="#f79a7e"/><path d="m120 116v28a8 8 0 0 1 -8 8 8 8 0 0 1 -8-8v-28l8-4z" fill="#de402f"/><path d="m120 96v20l-8-4-8 4v-20z" fill="#f28868"/><path d="m98 174.5 14 17.5h80l14.34315-14.34315a5.65684 5.65684 0 0 1 4-1.65685 5.65685 5.65685 0 0 1 5.65685 5.65685v18.34315l19.359 12.906a10.4222 10.4222 0 0 1 4.641 8.67179 10.4222 10.4222 0 0 1 -10.42219 10.42221h-123.61517a40 40 0 0 1 -29.89637-13.42545l-14.73292-16.57455z" fill="#ffceb6"/><path d="m136 496-40-176-24 176h-48v-232h136l40 232z" fill="#445496"/><g fill="#eb8117"><rect height="16" rx="8" transform="matrix(.781 -.625 .625 .781 -11.529 304.908)" width="28.459" x="414.659" y="160.889"/><rect height="15.999" rx="8" transform="matrix(.753 -.658 .658 .753 -17.174 353.066)" width="31.016" x="445.763" y="191.389"/><path d="m380.00422 204.00311a7.99991 7.99991 0 0 1 -11.31384.00072l-6.34761-6.34709a35.69625 35.69625 0 0 1 -4.44824-44.9209l1.67838-2.51744a7.99991 7.99991 0 0 1 11.09409-2.2184l.00013.00009a7.99991 7.99991 0 0 1 2.21822 11.094l-1.67834 2.51724a19.59857 19.59857 0 0 0 2.44846 24.73069l6.34813 6.34787a7.99991 7.99991 0 0 1 .00061 11.31321z"/></g><path d="m480 330.96a166.59623 166.59623 0 0 1 -2.03 25.92l-.49 3.12-21.48 136h-88v-240h96l7.47 22.41992a166.26539 166.26539 0 0 1 8.53 52.54008z" fill="#ffceb6"/><path d="m480 330.96a166.59623 166.59623 0 0 1 -2.03 25.92l-.49 3.12h-109.48v-104h96l7.47 22.41992a166.26539 166.26539 0 0 1 8.53 52.54008z" fill="#e8671c"/><path d="m400 360h16v136h-16z" fill="#ffbfa1"/><path d="m416 360h-16v-48a8 8 0 0 1 8-8 8 8 0 0 1 8 8z" fill="#d64e13"/><path d="m240 80v56l16-8 16 8v-56z" fill="#f7dfa1"/><path d="m88 56-.00348 24a24 24 0 0 0 24 24h.00005a24 24 0 0 0 24-24v-24z" fill="#ffceb6"/><path d="m112 24a24 24 0 0 1 24 24v8a0 0 0 0 1 0 0h-48a0 0 0 0 1 0 0v-8a24 24 0 0 1 24-24z" fill="#eb8117"/><path d="m120 56-24 24h-8.003l.003-24z" fill="#b36f42"/><path d="m88 48h72v16h-72z" fill="#f5a431"/><path d="m432.00348 71.99654.00352 16.00346a24.00173 24.00173 0 0 1 -24.00346 24 24.00345 24.00345 0 0 1 -24.00354-24.00346v-16l16-16a25.29929 25.29929 0 0 0 32.00031 16.001z" fill="#ffceb6"/><path d="m449.6 209.6-14.28922 12.50307a40 40 0 0 1 -26.34018 9.89693h-126.54841a10.4222 10.4222 0 0 1 -10.42219-10.42219 10.4222 10.4222 0 0 1 4.641-8.67179l19.359-12.90602v-18.34315a5.65685 5.65685 0 0 1 5.65685-5.65685 5.65684 5.65684 0 0 1 4 1.65685l14.34315 14.34315h80l17.77778-14.22223z" fill="#ffceb6"/></svg>