<svg width="555" height="469" viewBox="0 0 555 469" fill="none" xmlns="http://www.w3.org/2000/svg">
<path d="M277.5 54.3527L69.375 173.75V447.016H485.625V173.75L277.5 54.3527Z" fill="#EAE8E5"/>
<path d="M147.422 300.453H242.812V447.016H147.422V300.453Z" fill="#E89D43"/>
<path d="M338.203 366.406H459.609V395.719H338.203V366.406Z" fill="#33385C"/>
<path d="M312.188 447.016V344.422L329.531 322.438L346.875 344.422V447.016H312.188Z" fill="#454A6D"/>
<path d="M381.562 447.016V344.422L398.906 322.438L416.25 344.422V447.016H381.562Z" fill="#454A6D"/>
<path d="M450.938 447.016V344.422L468.281 322.438L485.625 344.422V447.016H450.938Z" fill="#454A6D"/>
<path d="M303.516 234.5H251.484C237.115 234.5 225.469 224.658 225.469 212.516V168.547C225.469 156.404 237.115 146.562 251.484 146.562H303.516C317.885 146.562 329.531 156.404 329.531 168.547V212.516C329.531 224.658 317.885 234.5 303.516 234.5Z" fill="#4AC3ED"/>
<path d="M329.531 183.203H286.172V146.562H268.828V183.203H225.469V197.859H268.828V234.5H286.172V197.859H329.531V183.203Z" fill="#454A6D"/>
<path d="M199.453 366.406H216.797V381.062H199.453V366.406Z" fill="#454A6D"/>
<path d="M60.7031 388.391H78.0469V447.016H60.7031V388.391Z" fill="#454A6D"/>
<path d="M112.734 359.078C112.734 385.386 93.318 403.047 69.375 403.047C45.432 403.047 26.0156 385.386 26.0156 359.078C26.0156 341.901 44.4954 300.307 57.3298 273.493C61.7177 264.325 77.0409 264.325 81.4289 273.493C94.2546 300.307 112.734 341.901 112.734 359.078Z" fill="#76CC7A"/>
<path d="M17.3438 439.688H537.656V454.344H17.3438V439.688Z" fill="#454A6D"/>
<path d="M510.574 188.003L277.5 54.3527L44.426 188.003L24.949 163.747L277.5 18.9285L530.051 163.747L510.574 188.003Z" fill="#E89D43"/>
<path d="M243.447 308.08V282.357C243.447 277.14 245.314 272.136 248.638 268.448C251.962 264.759 256.47 262.686 261.171 262.686H261.171C265.872 262.686 270.38 264.759 273.704 268.448C277.028 272.136 278.895 277.14 278.895 282.357V308.08H243.447Z" fill="#B36F42"/>
<path d="M278.895 350.447C277.134 342.628 277.909 334.37 281.087 327.122L281.943 325.169L283.232 323.917C284.439 322.745 285.407 321.299 286.07 319.678C286.732 318.057 287.075 316.298 287.075 314.517V314.517C287.075 311.205 285.89 308.028 283.779 305.686C281.669 303.343 278.806 302.027 275.821 302.027H246.367C242.751 302.027 239.283 303.622 236.726 306.459L229.812 314.132V329.264H246.173V350.447H278.895Z" fill="#F5A431"/>
<path d="M267.988 286.896V300.514C267.988 302.521 267.27 304.445 265.991 305.864C264.713 307.283 262.979 308.08 261.171 308.08C259.363 308.08 257.629 307.283 256.35 305.864C255.072 304.445 254.354 302.521 254.354 300.514V286.896H267.988Z" fill="#FFCEB6"/>
<path d="M186.184 283.87H229.813V335.316H186.184V283.87Z" fill="#F7C04A"/>
<path d="M128.921 353.474V307.463C128.921 302.811 130.586 298.35 133.55 295.06C136.514 291.77 140.534 289.922 144.726 289.922H172.356C175.972 289.922 179.44 291.517 181.997 294.354L186.184 299.001V323.211L175.276 311.106V353.474H128.921Z" fill="#ED6445"/>
<path d="M265.261 286.896V289.922C265.261 291.115 265.049 292.295 264.638 293.397C264.227 294.498 263.625 295.499 262.865 296.342C262.105 297.185 261.204 297.854 260.211 298.31C259.219 298.766 258.155 299.001 257.081 299.001H254.354V286.896H265.261Z" fill="#FFBFA1"/>
<path d="M138.194 321.172C137.194 319.924 135.471 319.811 134.346 320.921C133.221 322.031 133.12 323.943 134.12 325.191L137.766 329.744C138.766 330.992 140.489 331.105 141.614 329.995C142.739 328.885 142.84 326.973 141.84 325.725L138.194 321.172Z" fill="#DE402F"/>
<path d="M151.862 311.575C150.92 310.27 149.204 310.059 148.028 311.103C146.852 312.148 146.661 314.053 147.602 315.358L150.332 319.144C151.273 320.449 152.99 320.661 154.166 319.616C155.342 318.571 155.533 316.666 154.592 315.361L151.862 311.575Z" fill="#DE402F"/>
<path d="M169.823 289.922V302.027L158.916 295.975L148.008 302.027V289.922H169.823Z" fill="#F79A7E"/>
<path d="M161.642 297.488V308.08C161.642 308.882 161.355 309.652 160.844 310.22C160.332 310.787 159.639 311.106 158.916 311.106C158.192 311.106 157.499 310.787 156.988 310.22C156.476 309.652 156.189 308.882 156.189 308.08V297.488L158.916 295.975L161.642 297.488Z" fill="#DE402F"/>
<path d="M161.642 289.922V297.488L158.916 295.975L156.189 297.488V289.922H161.642Z" fill="#F28868"/>
<path d="M154.144 319.617L158.916 326.237H186.184L191.073 320.812C191.252 320.613 191.464 320.455 191.698 320.348C191.932 320.24 192.183 320.185 192.436 320.185C192.947 320.185 193.438 320.41 193.799 320.812C194.161 321.213 194.364 321.757 194.364 322.325V329.264L200.963 334.146C201.449 334.506 201.848 334.993 202.124 335.566C202.4 336.138 202.544 336.777 202.544 337.426C202.544 337.944 202.453 338.456 202.274 338.935C202.096 339.413 201.834 339.848 201.504 340.214C201.174 340.58 200.783 340.87 200.352 341.068C199.921 341.267 199.459 341.369 198.992 341.369H156.858C154.932 341.369 153.029 340.916 151.273 340.041C149.516 339.165 147.947 337.887 146.668 336.29L141.646 330.02L154.144 319.617Z" fill="#FFCEB6"/>
<path d="M167.096 441.235L153.462 374.657L145.282 441.235H128.921V353.474H175.276L188.91 441.235H167.096Z" fill="#445496"/>
<path d="M266.916 313.608L263.599 316.553C262.423 317.598 262.232 319.503 263.173 320.808C264.115 322.114 265.831 322.325 267.007 321.28L270.324 318.335C271.5 317.29 271.691 315.385 270.749 314.08C269.808 312.775 268.092 312.563 266.916 313.608Z" fill="#EB8117"/>
<path d="M278.128 324.999L274.274 328.736C273.14 329.836 273.024 331.748 274.015 333.006C275.006 334.265 276.729 334.393 277.863 333.293L281.717 329.556C282.851 328.456 282.967 326.544 281.976 325.286C280.985 324.027 279.262 323.899 278.128 324.999Z" fill="#EB8117"/>
<path d="M250.265 330.778C250.012 331.059 249.711 331.282 249.38 331.434C249.05 331.586 248.695 331.664 248.337 331.664C247.979 331.664 247.624 331.586 247.293 331.434C246.963 331.282 246.662 331.059 246.409 330.778L244.245 328.377C242.267 326.172 241.036 323.277 240.76 320.181C240.483 317.084 241.179 313.977 242.729 311.384L243.301 310.432C243.5 310.101 243.755 309.817 244.053 309.596C244.35 309.375 244.684 309.221 245.035 309.143C245.386 309.065 245.748 309.065 246.099 309.142C246.45 309.219 246.785 309.372 247.082 309.593L247.083 309.593C247.38 309.813 247.636 310.097 247.836 310.427C248.035 310.757 248.174 311.128 248.244 311.518C248.314 311.907 248.314 312.308 248.245 312.698C248.175 313.088 248.037 313.459 247.839 313.79L247.267 314.742C246.41 316.168 246.025 317.879 246.177 319.585C246.329 321.291 247.009 322.885 248.101 324.097L250.265 326.498C250.776 327.066 251.064 327.835 251.064 328.638C251.064 329.441 250.776 330.21 250.265 330.778V330.778Z" fill="#EB8117"/>
<path d="M284.349 378.803C284.348 382.086 284.117 385.365 283.657 388.608L283.49 389.788L276.168 441.235H246.173V350.447H278.895L281.441 358.928C283.366 365.337 284.347 372.048 284.349 378.803V378.803Z" fill="#FFCEB6"/>
<path d="M284.349 378.803C284.348 382.087 284.117 385.365 283.657 388.608L283.49 389.788H246.173V350.447H278.895L281.441 358.928C283.366 365.337 284.347 372.048 284.349 378.803V378.803Z" fill="#E8671C"/>
<path d="M257.081 389.788H262.534V441.235H257.081V389.788Z" fill="#FFBFA1"/>
<path d="M262.534 389.788H257.081V371.631C257.081 370.828 257.368 370.059 257.879 369.491C258.391 368.924 259.084 368.605 259.807 368.605C260.531 368.605 261.224 368.924 261.736 369.491C262.247 370.059 262.534 370.828 262.534 371.631V389.788Z" fill="#D64E13"/>
<path d="M202.545 283.87V305.054L207.998 302.027L213.452 305.054V283.87H202.545Z" fill="#F7DFA1"/>
<path d="M150.735 274.791L150.734 283.87C150.734 286.278 151.596 288.587 153.13 290.29C154.664 291.992 156.745 292.949 158.914 292.949H158.914C161.084 292.949 163.165 291.992 164.699 290.29C166.233 288.587 167.095 286.278 167.095 283.87V274.791H150.735Z" fill="#FFCEB6"/>
<path d="M158.916 262.686C161.085 262.686 163.166 263.643 164.7 265.345C166.234 267.048 167.096 269.357 167.096 271.765V274.791H150.735V271.765C150.735 269.357 151.597 267.048 153.131 265.345C154.665 263.643 156.746 262.686 158.916 262.686V262.686Z" fill="#EB8117"/>
<path d="M161.642 274.791L153.462 283.87H150.734L150.735 274.791H161.642Z" fill="#B36F42"/>
<path d="M150.735 271.765H175.276V277.817H150.735V271.765Z" fill="#F5A431"/>
<path d="M267.989 280.842L267.99 286.896C267.99 288.088 267.778 289.269 267.367 290.371C266.956 291.472 266.353 292.473 265.594 293.316C264.834 294.159 263.932 294.828 262.939 295.284C261.947 295.74 260.883 295.975 259.809 295.975C258.734 295.975 257.67 295.74 256.678 295.284C255.685 294.827 254.783 294.159 254.023 293.315C253.264 292.472 252.661 291.471 252.25 290.37C251.839 289.268 251.627 288.087 251.627 286.895V280.842L257.081 274.79C257.804 277.198 259.359 279.188 261.405 280.323C263.45 281.458 265.818 281.645 267.988 280.843L267.989 280.842Z" fill="#FFCEB6"/>
<path d="M273.987 332.895L269.116 337.625C266.631 340.038 263.441 341.369 260.138 341.369H217.004C216.062 341.369 215.158 340.953 214.492 340.214C213.826 339.474 213.452 338.472 213.452 337.426C213.452 336.777 213.596 336.138 213.872 335.566C214.148 334.993 214.547 334.506 215.034 334.146L221.632 329.264V322.325C221.632 321.757 221.835 321.213 222.197 320.812C222.558 320.41 223.049 320.185 223.56 320.185C223.813 320.185 224.064 320.24 224.298 320.348C224.532 320.455 224.745 320.613 224.924 320.812L229.812 326.237H257.081L263.14 320.857L273.987 332.895Z" fill="#FFCEB6"/>
</svg>
